{"title":"Megan Is Missing *2011* [DVDRip.XviD-miguel] [ENG]","uid":6374431,"size":737731648,"categoryP":"video","categoryS":"movies","magnet":"?xt=urn:btih:234b05e807dde01eda0e1175d4938973cdef578b&amp;dn=Megan+Is+Missing+%2A2011%2A+%5BDVDRip.XviD-miguel%5D+%5BENG%5D&amp;tr=udp%3A%2F%2Ftracker.openbittorrent.com%3A80&amp;tr=udp%3A%2F%2Fopen.demonii.com%3A1337&amp;tr=udp%3A%2F%2Ftracker.coppersurfer.tk%3A6969&amp;tr=udp%3A%2F%2Fexodus.desync.com%3A6969","seeders":2,"leechers":0,"uploader":"miguel1983","files":-1,"time":1304801750,"description":" &lt;a href=&quot;http://img29.imageshack.us/img29/6885/fbad7f.jpg&quot; rel=&quot;nofollow&quot; target=&quot;_NEW&quot;&gt;http://img29.imageshack.us/img29/6885/fbad7f.jpg&lt;/a&gt;\n\nCountry.......: USA\nGenre.........: Drama\nDate release..: 2011 [World]\nDirector......: Michael Goi\nWriters.......: Michael Goi\nDuration......: 86 min.\nMore..........: http://www.imdb.com/title/tt1087461\nTrailer.......: http://www.imdb.com/video/screenplay/vi2191498521\nTrailer.......:\n\nPilot :\nFictional drama based on actual events, about 2 teen-age girls who encounter an internet predator. \n\nCats :\nAmber Perkins   \t ...  \tAmy Herman\nRachel Quinn \t... \tMegan Stewart\nDean Waite \t... \tJosh\nJael Elizabeth Steinmeyer \t... \tLexie\nKara Wang \t... \tKathy\nBrittany Hingle \t... \tChelsea\nCarolina Sabate \t... \tAngie\nTrigve Hagen \t... \tGideon\nRudy Galvan \t... \tBen\nApril Stewart \t... \tJoyce Stewart\nJohn Frazier \t... \tBill Herman\nTammy Klein \t... \tLouise Herman\nLauren Leah Mitchell \t... \tCallie Daniels\nJon Simonelli \t... \tDetective Simonelli\nCraig Stoa \t... \tLeif Marcus \n\nData Technical :\n!!! SAMPLE !!!\nAudio.....: English\nSubtitles.: None\nFormat                           : AVI\nFormat/Info                      : Audio Video Interleave\nFile size                        : 701 MiB\nDuration                         : 1h 25mn\nOverall bit rate                 : 1 146 Kbps\nWriting application              : VirtualDubMod 1.5.10.2 (build 2540/release)\nWriting library                  : VirtualDubMod build 2540/release\nVideo\nID                               : 0\nFormat                           : MPEG-4 Visual\nFormat profile                   : Advanced Simple@L5\nFormat settings, BVOP            : Yes\nFormat settings, QPel            : No\nFormat settings, GMC             : No warppoints\nFormat settings, Matrix          : Default (H.263)\nCodec ID                         : XVID\nCodec ID/Hint                    : XviD\nDuration                         : 1h 25mn\nBit rate                         : 1 010 Kbps\nWidth                            : 608 pixels\nHeight                           : 336 pixels\nDisplay aspect ratio             : 16:9\nFrame rate                       : 23.976 fps\nColor space                      : YUV\nChroma subsampling               : 4:2:0\nBit depth                        : 8 bits\nScan type                        : Progressive\nBits/(Pixel*Frame)               : 0.206\nStream size                      : 618 MiB (88%)\nWriting library                  : XviD 1.1.2 (UTC 2006-11-01)\nAudio\nID                               : 1\nFormat                           : MPEG Audio\nFormat version                   : Version 1\nFormat profile                   : Layer 3\nCodec ID                         : 55\nCodec ID/Hint                    : MP3\nDuration                         : 1h 25mn\nBit rate mode                    : Variable\nBit rate                         : 124 Kbps\nMinimum bit rate                 : 128 Kbps\nChannel(s)                       : 2 channels\nSampling rate                    : 48.0 KHz\nStream size                      : 75.6 MiB (11%)\nAlignment                        : Aligned on interleaves\nInterleave, duration             : 24 ms (0.58 video frame)\nInterleave, preload duration     : 149 ms\nWriting library                  : LAME3.95 \nEncoding settings                : -m s -V 6 -q 3 -lowpass 16 --vbr-old -b 128\n\nScreen : &lt;a href=&quot;\nhttp://img199.imageshack.us/img199/5638/meganismissing2011s1.jpg&quot; rel=&quot;nofollow&quot; target=&quot;_NEW&quot;&gt;\nhttp://img199.imageshack.us/img199/5638/meganismissing2011s1.jpg&lt;/a&gt; &lt;a href=&quot;\nhttp://img219.imageshack.us/img219/3844/meganismissing2011s2.jpg&quot; rel=&quot;nofollow&quot; target=&quot;_NEW&quot;&gt;\nhttp://img219.imageshack.us/img219/3844/meganismissing2011s2.jpg&lt;/a&gt; &lt;a href=&quot;\nhttp://img6.imageshack.us/img6/4340/meganismissing2011s3.jpg&quot; rel=&quot;nofollow&quot; target=&quot;_NEW&quot;&gt;\nhttp://img6.imageshack.us/img6/4340/meganismissing2011s3.jpg&lt;/a&gt; &lt;a href=&quot;\nhttp://img535.imageshack.us/img535/6307/meganismissing2011s4.jpg&quot; rel=&quot;nofollow&quot; target=&quot;_NEW&quot;&gt;\nhttp://img535.imageshack.us/img535/6307/meganismissing2011s4.jpg&lt;/a&gt; &lt;a href=&quot;\nhttp://img64.imageshack.us/img64/8476/meganismissing2011s5.jpg&quot; rel=&quot;nofollow&quot; target=&quot;_NEW&quot;&gt;\nhttp://img64.imageshack.us/img64/8476/meganismissing2011s5.jpg&lt;/a&gt;","torrent":{"xt":"urn:btih:234b05e807dde01eda0e1175d4938973cdef578b","amp;dn":"Megan+Is+Missing+%2A2011%2A+%5BDVDRip.XviD-miguel%5D+%5BENG%5D","amp;tr":["udp%3A%2F%2Ftracker.openbittorrent.com%3A80","udp%3A%2F%2Fopen.demonii.com%3A1337","udp%3A%2F%2Ftracker.coppersurfer.tk%3A6969","udp%3A%2F%2Fexodus.desync.com%3A6969"],"infoHash":"234b05e807dde01eda0e1175d4938973cdef578b","infoHashBuffer":{"type":"Buffer","data":[35,75,5,232,7,221,224,30,218,14,17,117,212,147,137,115,205,239,87,139]},"announce":[],"urlList":[]}}